<svg t="1651894130608" class="icon" viewBox="0 0 1024 1024" version="1.1" xmlns="http://www.w3.org/2000/svg" p-id="1146" width="200" height="200">
  <path d="M413.92128 342.54848L362.86464 921.6 25.64096 769.78176l91.36128-537.41568z" fill="#3E7814" p-id="1147"></path>
  <path d="M413.92128 342.54848l373.49376-32.256 91.36128 564.28544L362.86464 921.6z" fill="#6BD729" p-id="1148"></path>
  <path d="M878.77632 175.94368l119.58272 529.34656-119.58272 169.28768-91.36128-564.28544z" fill="#339C48" p-id="1149"></path>
  <path d="M465.7152 110.8992L588.77952 102.4l-48.3328 21.77024z" fill="#9F8129" p-id="1150"></path>
  <path d="M862.47424 199.94624l16.32256-24.00256-60.3136-8.51968-234.51648 24.69888 127.22176-39.87456-80.0768-11.32544-71.61856 55.64416 15.2576-63.61088-94.98624-13.43488-47.45216 14.76608 94.94528 57.83552-165.45792-35.90144-93.22496 28.99968 239.77984 14.1312-337.38752 16.24064-53.94432 16.7936 41.30816 15.31904 343.36768-36.10624L252.45696 282.624l138.38336 51.34336-60.98944-23.42912 177.37728-91.17696h15.5648l-108.72832 123.16672 94.39232-8.15104 21.01248-115.01568h21.13536l65.61792 105.63584-10.4448 0.96256 78.86848-6.79936c-27.05408-25.23136-106.2912-97.95584-122.368-99.79904l4.99712-4.44416 220.13952 95.37536 42.25024-62.13632-250.71616-42.7008 283.52512-5.50912z" fill="#6FE531" p-id="1151"></path>
  <path d="M158.3104 247.7056L252.45696 282.624l249.22112-71.04512zM390.84032 333.98784l22.97856 8.8064 0.24576-0.26624-0.14336 0.02048z" fill="#36600C" p-id="1152"></path>
  <path d="M506.30656 219.83232l-177.3568 91.19744 60.98944 23.42912 23.06048 8.56064 0.14336-0.02048 108.7488-123.16672zM508.33408 335.01184l97.42336-9.03168-97.30048 8.3968zM550.6048 219.36128h-21.13536l-21.01248 115.01568 97.30048-8.3968 10.4448-0.96256zM562.2784 219.36128c16.0768 1.8432 95.29344 74.56768 122.368 99.79904l102.78912-8.86784L567.296 214.91712l-5.0176 4.44416zM578.94912 205.45536l250.71616 42.7008 32.80896-48.20992zM818.4832 167.424l-111.43168-15.17568-132.15744 39.87456zM631.11168 140.92288l-56.36096-7.96672-15.2576 63.61088zM432.31232 134.26688l-70.51264 21.95456 165.43744 35.90144zM268.57472 185.22112l-97.62816 30.37184 337.38752-16.24064z" fill="#36600C" p-id="1153"></path>
  <path d="M540.44672 124.17024l-74.73152-13.27104 25.92768 90.13248a31.72352 31.72352 0 0 0 30.49472 22.95808h20.02944l-1.72032-99.81952z" fill="#5B3101" p-id="1154"></path>
  <path d="M581.09952 194.9696l7.68-92.5696-48.31232 21.77024 1.72032 99.81952h7.3728c16.46592 0 30.16704-12.61568 31.5392-29.02016z" fill="#4F4218" p-id="1155"></path>
  <path d="M252.45696 282.624L181.1456 839.7824l-95.51872-42.98752L158.3104 247.7056zM328.94976 311.02976l84.15232 31.232-51.05664 579.05152-104.448-47.02208z" fill="#135C02" p-id="1156"></path>
  <path d="M508.45696 334.37696l-10.56768 574.91456 141.33248-12.88192-23.01952-571.392zM684.6464 319.16032l102.76864-8.86784 91.36128 564.28544-120.48384 10.97728z" fill="#47BD09" p-id="1157"></path>
  <path d="M829.66528 248.15616l101.84704 551.77216 48.2304-68.28032-117.26848-531.70176z" fill="#308C39" p-id="1158"></path>
</svg>